<?xml version="1.0" encoding="utf-8"?>
<svg viewBox="313.749 146.412 43.633 43.6" width="43.633" height="43.6" xmlns="http://www.w3.org/2000/svg">
  <path id="Path_126" data-name="Path 126" d="M 335.582 146.412 C 318.8 146.412 308.312 164.579 316.702 179.112 C 325.093 193.646 346.07 193.646 354.461 179.112 C 356.375 175.798 357.382 172.039 357.382 168.212 C 357.376 156.175 347.619 146.419 335.582 146.412 Z M 335.582 152.953 C 340.617 152.953 343.764 158.404 341.246 162.765 C 338.729 167.126 332.435 167.126 329.917 162.765 C 329.343 161.771 329.041 160.643 329.041 159.494 C 329.036 155.88 331.967 152.949 335.582 152.953 Z M 335.582 183.914 C 330.32 183.914 325.408 181.278 322.5 176.893 C 322.565 172.554 331.221 170.178 335.582 170.178 C 339.921 170.178 348.599 172.555 348.664 176.893 C 345.755 181.277 340.843 183.912 335.582 183.912 L 335.582 183.914 Z" style="fill: rgb(128, 0, 128);"/>
</svg>