<svg xmlns="http://www.w3.org/2000/svg" xmlns:xlink="http://www.w3.org/1999/xlink" width="191.302" height="29.35" viewBox="0 0 191.302 29.35">
  <defs>
    <linearGradient id="linear-gradient" x1="0.5" y1="1" x2="0.5" gradientUnits="objectBoundingBox">
      <stop offset="0" stop-color="#006eff"/>
      <stop offset="0.5" stop-color="#00aeff"/>
      <stop offset="1" stop-color="#00cbff"/>
    </linearGradient>
    <linearGradient id="linear-gradient-2" y1="0" y2="1" xlink:href="#linear-gradient"/>
  </defs>
  <g id="Group_86" data-name="Group 86" transform="translate(-70 -13)">
    <g id="Group_50" data-name="Group 50" transform="translate(-562.412 -364.266)">
      <g id="Group_48" data-name="Group 48" transform="translate(647.399 384.481)">
        <path id="Path_1994" data-name="Path 1994" d="M697.077,406.488v.976h-3.818v19.478h1.411V408.876h2.406v19.748l9.355-1.682V408.173Zm1.721,11.827a.767.767,0,1,1,.569-.741A.672.672,0,0,1,698.8,418.315Z" transform="translate(-693.259 -406.488)" fill="url(#linear-gradient)"/>
      </g>
      <g id="Group_49" data-name="Group 49" transform="translate(632.412 377.289)">
        <path id="Path_1995" data-name="Path 1995" d="M672.616,387.639a10.078,10.078,0,0,0-7.176-2.944,6.818,6.818,0,0,0-.966.046,12.847,12.847,0,0,0-11.638-7.452,12.789,12.789,0,0,0-12.512,9.936,8.886,8.886,0,0,0-7.912,8.832,8.873,8.873,0,0,0,8.924,8.878H647.4V385.458h3.818v-.976l9.355,1.685v18.768h4.867a10.273,10.273,0,0,0,7.176-2.944,10.078,10.078,0,0,0,2.944-7.176A10.273,10.273,0,0,0,672.616,387.639Z" transform="translate(-632.412 -377.289)" fill="#fff"/>
      </g>
      <path id="Path_1996" data-name="Path 1996" d="M694.67,429.931h-1.411V410.455h3.818v1.411H694.67Z" transform="translate(-45.86 -24.997)" fill="url(#linear-gradient-2)"/>
    </g>
    <g id="Group_54" data-name="Group 54" transform="translate(104 -9)">
      <g id="Group_53" data-name="Group 53" transform="translate(22 22)">
        <g id="Group_51" data-name="Group 51">
          <path id="Path_1997" data-name="Path 1997" d="M594.034,541.092h-2.742v-4.343h-3.809v4.343H584.74V530.427h2.743v4.19h3.809v-4.19h2.742Z" transform="translate(-584.74 -527.227)" fill="#fff"/>
          <path id="Path_1998" data-name="Path 1998" d="M605.76,538.883q3.718.229,5.028.229a.71.71,0,0,0,.762-.762V536.9H607.5v-2.133h4.053v-1.295a.808.808,0,0,0-.914-.914h-4.723v-2.133h5.333a2.617,2.617,0,0,1,3.047,3.047v4.876a2.512,2.512,0,0,1-2.895,2.895q-2.285,0-5.638-.305Z" transform="translate(-595.247 -527.227)" fill="#fff"/>
          <path id="Path_1999" data-name="Path 1999" d="M625.257,530.427h6.095a3.063,3.063,0,0,1,2.194.678,2.754,2.754,0,0,1,.7,2.065,2.559,2.559,0,0,1-.4,1.485,2.133,2.133,0,0,1-.975.8,2.362,2.362,0,0,1,1.676,1.646,3.58,3.58,0,0,1,.153,1.1,2.512,2.512,0,0,1-2.895,2.895h-6.552Zm6.247,3.047a.808.808,0,0,0-.914-.914H628v2.133h2.59a.808.808,0,0,0,.914-.914Zm.457,4.266a.808.808,0,0,0-.914-.914H628v2.133h3.047a.808.808,0,0,0,.914-.914Z" transform="translate(-604.992 -527.227)" fill="#fff"/>
          <path id="Path_2000" data-name="Path 2000" d="M651.611,541.092h-2.743V532.56h-3.2v-2.133h9.142v2.133h-3.2Z" transform="translate(-615.195 -527.227)" fill="#fff"/>
          <path id="Path_2001" data-name="Path 2001" d="M666.384,530.427h6.4a2.617,2.617,0,0,1,3.047,3.047V535a2.618,2.618,0,0,1-3.047,3.047h-3.657v3.047h-2.743Zm6.7,3.047a.808.808,0,0,0-.914-.914h-3.047v3.353h3.047a.808.808,0,0,0,.914-.915Z" transform="translate(-625.549 -527.227)" fill="#fff"/>
          <path id="Path_2002" data-name="Path 2002" d="M687.709,538.883q3.717.229,5.028.229a.709.709,0,0,0,.762-.762V536.9h-4.053v-2.133H693.5v-1.295a.808.808,0,0,0-.914-.914h-4.723v-2.133h5.333a2.617,2.617,0,0,1,3.047,3.047v4.876a2.512,2.512,0,0,1-2.895,2.895q-2.285,0-5.637-.305Z" transform="translate(-636.208 -527.227)" fill="#fff"/>
          <path id="Path_2003" data-name="Path 2003" d="M710.466,540.612a2.076,2.076,0,0,1-1.539.633,9.285,9.285,0,0,1-1.722-.153v-2.057h.686a.637.637,0,0,0,.48-.2.737.737,0,0,0,.206-.487l.457-7.923h8.456v10.665h-2.742V532.56h-3.2l-.381,6.323A2.625,2.625,0,0,1,710.466,540.612Z" transform="translate(-645.954 -527.227)" fill="#fff"/>
          <path id="Path_2004" data-name="Path 2004" d="M736.147,541.092h-2.742V532.56h-3.2v-2.133h9.142v2.133h-3.2Z" transform="translate(-657.45 -527.227)" fill="#fff"/>
          <path id="Path_2005" data-name="Path 2005" d="M760.215,541.092h-2.743V534.54l-3.657,6.552h-2.895V530.427h2.743v6.551l3.657-6.551h2.895Z" transform="translate(-667.805 -527.227)" fill="#fff"/>
          <path id="Path_2006" data-name="Path 2006" d="M778.493,537.894v-6.552l-3.657,6.552h-2.895V527.229h2.743v6.551l3.657-6.551h2.895v10.665Zm-2.742-11.427a1.751,1.751,0,0,1-1.981-1.981v-.457h1.981v.381a.52.52,0,0,0,.533.533h.457a.52.52,0,0,0,.533-.533v-.381h1.981v.457a1.751,1.751,0,0,1-1.981,1.981Z" transform="translate(-678.311 -524.029)" fill="#fff"/>
          <path id="Path_2007" data-name="Path 2007" d="M802.255,541.092h-2.743v-4.343H795.7v4.343h-2.743V530.427H795.7v4.19h3.809v-4.19h2.743Z" transform="translate(-688.818 -527.227)" fill="#fff"/>
        </g>
        <g id="Group_52" data-name="Group 52" transform="translate(0 16.704)">
          <path id="Path_2008" data-name="Path 2008" d="M594.034,568.092h-2.742V563.75h-3.809v4.343H584.74V557.427h2.743v4.19h3.809v-4.19h2.742Z" transform="translate(-584.74 -557.427)" fill="#fff"/>
          <path id="Path_2009" data-name="Path 2009" d="M605.76,565.883q3.718.229,5.028.229a.71.71,0,0,0,.762-.762V563.9H607.5v-2.133h4.053v-1.295a.808.808,0,0,0-.914-.914h-4.723v-2.133h5.333a2.617,2.617,0,0,1,3.047,3.047v4.876a2.512,2.512,0,0,1-2.895,2.895q-2.285,0-5.638-.305Z" transform="translate(-595.247 -557.427)" fill="#fff"/>
          <path id="Path_2010" data-name="Path 2010" d="M628,568.092h-2.743V557.427h8.3v2.133H628Z" transform="translate(-604.992 -557.427)" fill="#fff"/>
          <path id="Path_2011" data-name="Path 2011" d="M644.145,557.427h8v8.532h1.143v4.114H650.7l-.153-1.981H644.6l-.152,1.981h-2.59v-4.114h.99a3.4,3.4,0,0,0,.663-1.135,4.292,4.292,0,0,0,.252-1.151Zm5.257,8.532v-6.4h-2.819l-.229,3.81a5.34,5.34,0,0,1-.457,1.874,4.345,4.345,0,0,1-.381.716Z" transform="translate(-613.291 -557.427)" fill="#fff"/>
          <path id="Path_2012" data-name="Path 2012" d="M675.677,567.94q-3.4.3-5.637.305a2.512,2.512,0,0,1-2.895-2.895v-4.876a2.617,2.617,0,0,1,3.047-3.047h5.485v2.133H670.8a.808.808,0,0,0-.914.914v4.876a.753.753,0,0,0,.206.556.715.715,0,0,0,.526.206q.32,0,.7-.008t.793-.023l.83-.03q.419-.016,1.082-.061t1.653-.107Z" transform="translate(-625.93 -557.427)" fill="#fff"/>
          <path id="Path_2013" data-name="Path 2013" d="M686.032,565.883q3.717.229,5.028.229a.71.71,0,0,0,.762-.762V563.9h-4.053v-2.133h4.053v-1.295a.808.808,0,0,0-.914-.914h-4.723v-2.133h5.333a2.617,2.617,0,0,1,3.047,3.047v4.876a2.512,2.512,0,0,1-2.895,2.895q-2.286,0-5.638-.305Z" transform="translate(-635.37 -557.427)" fill="#fff"/>
          <path id="Path_2014" data-name="Path 2014" d="M714.823,568.092h-2.742V563.75h-3.809v4.343h-2.743V557.427h2.743v4.19h3.809v-4.19h2.742Z" transform="translate(-645.116 -557.427)" fill="#fff"/>
          <path id="Path_2015" data-name="Path 2015" d="M739.956,567.94q-3.4.3-5.637.305a2.512,2.512,0,0,1-2.895-2.895v-4.876a2.617,2.617,0,0,1,3.047-3.047h5.485v2.133h-4.876a.808.808,0,0,0-.914.914v4.876a.754.754,0,0,0,.206.556.715.715,0,0,0,.526.206q.32,0,.7-.008t.792-.023l.83-.03q.419-.016,1.082-.061t1.653-.107Z" transform="translate(-658.059 -557.427)" fill="#fff"/>
          <path id="Path_2016" data-name="Path 2016" d="M760.215,568.092h-2.743V561.54l-3.657,6.552h-2.895V557.427h2.743v6.551l3.657-6.551h2.895Z" transform="translate(-667.805 -557.427)" fill="#fff"/>
          <path id="Path_2017" data-name="Path 2017" d="M780.473,567.94q-3.4.3-5.637.305a2.512,2.512,0,0,1-2.895-2.895v-4.876a2.617,2.617,0,0,1,3.047-3.047h5.485v2.133H775.6a.808.808,0,0,0-.914.914v4.876a.752.752,0,0,0,.206.556.715.715,0,0,0,.526.206q.32,0,.7-.008t.793-.023l.83-.03q.419-.016,1.082-.061t1.653-.107Z" transform="translate(-678.311 -557.427)" fill="#fff"/>
          <path id="Path_2018" data-name="Path 2018" d="M797.379,568.092h-2.742V559.56h-3.2v-2.133h9.142v2.133h-3.2Z" transform="translate(-688.056 -557.427)" fill="#fff"/>
          <path id="Path_2019" data-name="Path 2019" d="M820.609,568.092h-8.456V557.427h8.456v2.133H814.9v2.057h4.494v2.133H814.9v2.21h5.713Z" transform="translate(-698.411 -557.427)" fill="#fff"/>
          <path id="Path_2020" data-name="Path 2020" d="M840.639,562.15l-2.133,3.809h-2.133l-2.133-3.809v5.942H831.5V557.427h2.895l3.047,5.637,3.047-5.637h2.9v10.665h-2.743Z" transform="translate(-708.08 -557.427)" fill="#fff"/>
        </g>
      </g>
    </g>
  </g>
</svg>
